<svg width="50" height="51" viewBox="0 0 50 51" fill="none" xmlns="http://www.w3.org/2000/svg">
<g clip-path="url(#clip0_67_2470)">
<path d="M25.0001 20.8489L2.8611 12.7874M25.0001 20.8489L47.1459 12.8141M25.0001 20.8489V47.6127M7.952 41.8268L22.3553 46.972C23.3355 47.3222 23.8255 47.4971 24.3281 47.5667C24.7741 47.6283 25.2261 47.6283 25.6721 47.5667C26.1747 47.4971 26.6647 47.3222 27.6448 46.972L42.0481 41.8268C43.957 41.1449 44.9114 40.8041 45.6162 40.1925C46.2382 39.6527 46.719 38.9652 47.015 38.1916C47.35 37.3157 47.35 36.2912 47.35 34.2422V16.3493C47.35 14.3004 47.35 13.276 47.015 12.4001C46.719 11.6264 46.2382 10.939 45.6162 10.399C44.9114 9.78764 43.957 9.44669 42.0481 8.76479L27.6448 3.61964C26.6647 3.26951 26.1747 3.09445 25.6721 3.02498C25.2261 2.96335 24.7741 2.96335 24.3281 3.02498C23.8255 3.09445 23.3355 3.26951 22.3553 3.61964L7.952 8.76479C6.04309 9.44669 5.08865 9.78764 4.3841 10.399C3.76183 10.939 3.28126 11.6264 2.98527 12.4001C2.65015 13.276 2.65015 14.3004 2.65015 16.3493V34.2422C2.65015 36.2912 2.65015 37.3157 2.98527 38.1916C3.28126 38.9652 3.76183 39.6527 4.3841 40.1925C5.08865 40.8041 6.04309 41.1449 7.952 41.8268Z" stroke="#FF8B17" stroke-width="4" stroke-linecap="round" stroke-linejoin="round"/>
</g>
<defs>
<clipPath id="clip0_67_2470">
<rect width="50" height="50" fill="white" transform="translate(0 0.295654)"/>
</clipPath>
</defs>
</svg>
