<svg width="50" height="50" viewBox="0 0 50 50" fill="none" xmlns="http://www.w3.org/2000/svg">
<g clip-path="url(#clip0_67_2462)">
<path d="M48.4495 16.3206C48.0143 15.1425 47.49 14.0032 46.8878 12.9159C45.7478 10.8565 44.3282 8.97324 42.6759 7.32402C42.6355 7.28369 42.6022 7.24961 42.5619 7.20928H42.5592C42.5123 7.16279 42.4677 7.11787 42.4181 7.07217L42.4146 7.06982C42.2731 6.92871 42.1268 6.78848 41.9794 6.65742C37.5244 2.52559 31.5497 0.000488281 24.9998 0.000488281C21.1963 0.000488281 17.5865 0.852246 14.358 2.37373C14.1363 2.47832 13.9154 2.58604 13.6984 2.69697C11.3303 3.89902 9.1792 5.46611 7.32334 7.32402C4.60918 10.0351 2.51729 13.3739 1.27607 17.1004C1.21367 17.288 1.15205 17.4786 1.09434 17.6685L1.08691 17.6895C1.04736 17.8181 1.00947 17.9514 0.972266 18.0832C0.880078 18.3986 0.795898 18.7141 0.719141 19.0357C0.688867 19.1466 0.66416 19.2582 0.639258 19.3714C0.220898 21.1802 0 23.065 0 25.0003C0 31.8975 2.80098 38.1575 7.32334 42.6768C9.86826 45.2205 12.963 47.2208 16.4127 48.4856C16.52 48.5252 16.6297 48.5647 16.7408 48.6011C17.4 48.8336 18.0743 49.0374 18.7583 49.2134C18.8776 49.2437 18.9993 49.2738 19.1214 49.3002C21.0075 49.7582 22.9776 50 24.9997 50C31.8976 50 38.1564 47.1998 42.6758 42.6767C43.5051 41.8497 44.2734 40.9653 44.9765 40.0275C48.1283 35.8455 50 30.6356 50 25.0003C50 21.9506 49.4517 19.0255 48.4495 16.3206ZM9.25674 40.7445C5.22578 36.709 2.73584 31.1526 2.73584 25.0003C2.73584 23.8633 2.8208 22.7487 2.98506 21.6599C3.74346 22.19 5.12686 22.9317 5.14434 22.9356C5.19619 22.952 5.25586 22.9605 5.32803 22.9605C5.44004 22.9605 5.57451 22.9403 5.71357 22.9179C5.86045 22.8962 6.01006 22.8745 6.129 22.8745C6.16621 22.8745 6.20147 22.8761 6.22939 22.8814C6.28086 22.9047 6.36543 23.1 6.40996 23.2047C6.50225 23.4155 6.59678 23.634 6.79131 23.7294C6.97187 23.8208 7.3625 23.8682 7.93486 23.9293C8.12441 23.9503 8.31816 23.9735 8.41768 23.9897C8.45488 24.0579 8.5002 24.2246 8.53008 24.3409C8.61728 24.668 8.70371 25.0021 8.95283 25.1509C9.15947 25.2772 9.8333 25.9182 10.2093 26.2956C10.2589 26.3437 10.3212 26.3685 10.3859 26.3685C10.4274 26.3685 10.4728 26.3584 10.51 26.3336C10.5398 26.3165 11.1962 25.9321 11.4253 25.7888C11.4729 25.8042 11.5574 25.8577 11.6342 25.9236C11.6462 26.284 11.6919 27.4761 11.6941 27.7171C11.652 27.8667 11.1517 28.3866 10.5998 28.8532C10.5452 28.8989 10.5119 28.9633 10.51 29.0322C10.5076 29.1004 10.4479 30.6745 10.51 31.307C10.575 31.948 11.6268 33.2005 11.9097 33.526C12.0294 33.8508 12.3557 34.7149 12.4802 34.9002C12.6045 35.0869 13.8659 36.0333 14.677 36.6324V40.3619C14.677 40.7797 14.8401 41.0524 14.9703 41.2741C15.0502 41.4059 15.1121 41.5098 15.1121 41.6043V44.2162C15.1121 44.5558 15.2109 44.834 15.348 45.0695C13.0772 43.9749 11.0223 42.507 9.25674 40.7445ZM44.2786 15.7967C43.8427 15.4867 43.159 15.3619 43.159 15.3619L42.661 15.2983C42.4126 14.8015 42.537 13.6824 41.6667 13.9304C40.7955 14.1799 37.9349 14.6767 37.3129 14.8015C36.6917 14.9255 35.9449 15.9198 35.4478 16.6663C34.9498 17.4126 33.5819 19.7765 33.3331 20.1493C33.0847 20.5221 32.9599 22.886 32.9599 23.5068C32.9599 24.13 35.697 26.7419 36.5669 26.8658C37.4377 26.9898 39.8003 26.3683 40.4228 26.2442C41.0447 26.1187 41.4175 26.9898 41.9151 26.9898C42.4127 26.9898 43.0347 27.2386 42.537 27.9865C42.0395 28.7306 42.0395 29.1041 42.537 29.6018C43.0347 30.1001 44.0294 31.9656 43.4074 33.4584C42.7854 34.9503 43.2839 35.6959 43.6566 36.3183C43.7279 36.4376 43.8031 36.6034 43.883 36.7987C42.9867 38.2279 41.9322 39.5517 40.7433 40.7444C36.708 44.7739 31.1517 47.2642 24.9998 47.2642C22.9447 47.2642 20.9579 46.9843 19.0695 46.4666C19.0773 46.4356 19.0847 46.4008 19.09 46.365C19.1214 46.1318 19.025 45.9582 18.9254 45.8357C19.0649 45.769 19.1766 45.6621 19.256 45.5194C19.3761 45.3009 19.3958 45.0327 19.3761 44.8211L19.497 44.8234C19.8004 44.8234 20.1492 44.7955 20.4177 44.6041C20.8575 44.291 20.8657 43.6291 20.7831 43.1695C20.8152 43.1835 20.8481 43.1989 20.878 43.2082C20.9122 43.2222 20.9498 43.2253 20.9877 43.2253C21.3857 43.2253 21.826 42.5099 21.9445 42.0363C21.9898 41.8627 22.1562 41.4783 22.3186 41.1039C22.6987 40.2211 22.9273 39.6662 22.8832 39.3903C22.8897 39.2167 23.5719 38.6733 24.1782 38.5517C24.8976 38.4083 25.1536 38.144 25.4249 37.2597C25.6838 36.4203 25.8109 35.0222 25.7438 34.4245C25.7241 34.2285 26.1483 33.6316 26.4328 33.2364C26.8952 32.5839 27.1769 32.1669 27.1769 31.8413C27.1769 31.0896 26.5445 30.5826 26.0693 30.2657C25.597 29.9503 24.7685 29.8774 24.2186 29.8316C24.0647 29.8185 23.9302 29.8068 23.8678 29.7938C23.8108 29.782 23.7112 29.6736 23.6317 29.5898C23.4604 29.4054 23.2257 29.1543 22.8524 29.107C22.8103 29.1016 22.766 29.1 22.7238 29.1C22.4867 29.1 22.2762 29.1744 22.0697 29.2465C21.8856 29.3132 21.7112 29.3768 21.5377 29.3768C21.4846 29.3768 21.4354 29.3706 21.3857 29.3581C21.2936 29.3388 21.2582 29.3132 21.2512 29.3132C21.2531 29.2714 21.333 29.1311 21.529 29.0008C21.7186 28.8745 21.8979 28.5955 21.6914 27.963C21.5446 27.5073 21.2729 27.0764 21.1645 26.9151C20.7738 26.3285 20.0619 26.3285 19.8282 26.3285C19.6143 26.3285 19.4051 26.3494 19.1907 26.368L19.1442 26.3695C18.9275 26.3695 18.8009 26.1789 18.5544 25.7759C18.4148 25.5472 18.258 25.2914 18.0401 25.0279C17.5666 24.4605 16.9056 24.3854 16.3184 24.3854C16.2408 24.3854 16.1664 24.3854 16.0939 24.3885C16.032 24.3885 15.9719 24.39 15.9153 24.39C15.8358 24.39 15.7634 24.3885 15.7007 24.38C15.4849 24.3528 15.1636 24.1886 14.8803 24.0429C14.5695 23.8832 14.2758 23.7313 14.027 23.6964L13.9649 23.6918C13.6092 23.6918 13.2065 24.1049 12.6318 24.7312C12.4893 24.8861 12.3056 25.0868 12.2083 25.1713C12.189 25.1488 12.1637 25.1202 12.1443 25.0953C12.0397 24.962 11.8976 24.7869 11.646 24.7017C11.5917 24.6838 11.5367 24.6737 11.4821 24.6737C11.2856 24.6737 11.1392 24.7869 11.0116 24.8845C10.898 24.9697 10.8008 25.0419 10.6833 25.0419C10.6144 25.0419 10.5345 25.0179 10.4423 24.9683C10.0993 24.7808 10.2132 24.0622 10.3031 23.4855C10.3457 23.2205 10.3856 22.9709 10.3856 22.7608C10.3856 22.2835 10.1035 22.2315 9.98496 22.2315C9.87031 22.2315 9.7583 22.2712 9.62891 22.3223C9.48242 22.375 9.31299 22.4377 9.13633 22.4377C9.05684 22.4377 8.98242 22.4245 8.91035 22.3998C8.76855 22.3533 8.70576 22.3037 8.69609 22.2742C8.66123 22.1788 8.84531 21.8982 8.9793 21.6914C9.04141 21.5968 9.10645 21.4976 9.16846 21.3961C9.42773 20.9645 9.56221 20.6459 9.42461 20.4048C9.33965 20.2591 9.18389 20.1831 8.95957 20.1831C8.87315 20.1831 8.77598 20.1932 8.66123 20.2156C8.57666 20.2311 8.49687 20.2389 8.41738 20.2389C8.31055 20.2389 8.22832 20.2241 8.15625 20.2117C8.08887 20.201 8.03691 20.1908 7.9916 20.1908C7.64863 20.1908 7.60645 20.5317 7.58857 20.6791C7.52461 21.1968 7.21377 21.4604 6.66895 21.4604C6.62861 21.4604 6.58994 21.458 6.54727 21.4557C5.96748 21.4185 5.7207 21.0069 5.7207 20.0869C5.7207 19.687 5.7835 19.5816 5.96953 19.2678C6.06172 19.1166 6.17637 18.9252 6.31553 18.6446C6.62363 18.03 6.86777 17.9153 7.17852 17.772C7.27031 17.7285 7.36523 17.6845 7.4626 17.6285C7.53701 17.5836 7.59902 17.5643 7.64355 17.5643C7.67646 17.5643 7.71064 17.5774 7.7707 17.5976C7.85322 17.6285 7.96445 17.6681 8.11172 17.6681C8.15391 17.6681 8.19844 17.6666 8.24805 17.6596C8.70576 17.5813 8.80264 17.3131 8.8875 17.0768C8.89805 17.052 8.90723 17.0256 8.92051 16.9923C8.94492 17.0008 8.96973 17.0069 8.99492 17.0116C9.19648 17.0697 9.53242 17.1636 10.0745 17.1636C10.2535 17.1636 10.383 17.1658 10.4775 17.1714C10.4102 17.5124 10.4125 18.1696 11.0863 18.9377C11.308 19.1888 11.5025 19.3058 11.701 19.3058C12.3385 19.3058 12.3924 18.2315 12.3924 17.0364C12.3924 16.3142 12.6663 16.1165 13.4771 15.5375L13.5298 15.4987C13.97 15.1864 14.2316 14.8151 14.4847 14.4563C14.7587 14.0696 15.0167 13.7037 15.5022 13.4015C15.9579 13.114 16.669 12.7984 17.3558 12.4899C18.149 12.1373 18.8974 11.8033 19.2488 11.5228C19.6519 11.1988 19.572 10.6919 19.5069 10.2804C19.4224 9.75166 19.4473 9.64248 19.6589 9.57959C20.0073 9.48115 20.3805 9.42315 20.7761 9.36104C21.3427 9.27188 21.9302 9.17969 22.5327 8.95264C23.1582 8.71943 23.3031 8.38535 23.3155 8.14424C23.3384 7.73662 22.9868 7.41025 22.6792 7.25606C22.5446 7.18858 22.5292 6.8584 22.5195 6.56543C22.5048 6.19111 22.4901 5.80596 22.2482 5.56719C22.1118 5.42773 21.9371 5.35791 21.7355 5.35791C21.4721 5.35791 21.1887 5.47412 20.8604 5.61289C20.6435 5.70195 20.4001 5.80117 20.1413 5.87559C20.1134 5.8834 20.089 5.88877 20.0692 5.88877C19.972 5.88877 19.9025 5.68652 19.8161 5.40283C19.6832 4.9835 19.4871 4.35576 18.7981 4.35576C18.721 4.35576 18.6361 4.36279 18.547 4.38057C17.6688 4.55645 17.4623 5.49815 17.3135 6.18633C17.2607 6.43359 17.179 6.80869 17.1065 6.8583C16.5892 6.8583 16.4226 7.18848 16.2606 7.50928C16.1583 7.71397 16.0421 7.94492 15.8153 8.17119C15.6762 8.31074 15.5797 8.34873 15.5519 8.35186C15.5097 8.31231 15.4452 8.00928 15.7161 7.46826C15.8308 7.24121 15.9599 6.91025 15.8007 6.63975C15.6139 6.32354 15.1718 6.30264 14.6613 6.28408C14.4575 6.27402 14.2459 6.26621 14.0344 6.23916C13.631 6.18877 13.5248 6.08643 13.5197 6.06475C13.5197 6.05469 13.5248 5.98486 13.6345 5.8501C16.9602 3.87295 20.845 2.73604 24.9997 2.73604C30.0374 2.73604 34.6757 4.40625 38.4071 7.2251C38.349 7.4584 38.1604 7.79785 37.9968 8.08389C37.7484 8.52022 37.8729 8.76904 37.8729 8.76904C37.8729 8.76904 39.0548 8.58223 39.3028 8.4583C39.3903 8.41494 39.4694 8.28623 39.5276 8.13047C39.6543 8.2374 39.7783 8.34512 39.8996 8.4583C39.6039 8.72637 39.2862 9.00772 39.1788 9.08057C38.9928 9.20381 38.3708 9.39131 38.1217 9.51455C37.8729 9.63936 38.8676 10.075 38.8676 10.2609C38.8676 10.4478 38.8676 11.3182 38.4944 11.3793C38.1217 11.4421 36.3809 11.4421 36.3809 11.4421C36.3809 11.4421 35.8205 13.4317 35.9449 13.6185C36.0693 13.806 36.8777 14.2416 37.3756 14.1796C37.8729 14.1153 38.9927 13.558 38.9927 13.558L39.4895 12.4389L40.4843 11.3793C40.4843 11.3793 41.2307 11.69 41.4798 11.4421C41.7282 11.194 42.2261 10.9461 42.2261 10.9461C42.2261 10.9461 42.7237 11.8776 43.0345 12.0025L43.0945 12.0297L43.0961 12.0335C43.4554 12.528 43.7909 13.0372 44.1037 13.5627L44.1068 13.5666V13.5689L44.1114 13.5799C44.1285 13.6163 44.1464 13.6488 44.1688 13.6698C44.6784 14.5332 45.1342 15.4307 45.5267 16.36C45.1258 16.3338 44.6557 16.0648 44.2786 15.7967Z" fill="#111111"/>
</g>
<defs>
<clipPath id="clip0_67_2462">
<rect width="50" height="50" fill="white"/>
</clipPath>
</defs>
</svg>
