<svg width="35" height="25" viewBox="0 0 35 25" fill="none" xmlns="http://www.w3.org/2000/svg">
<g clip-path="url(#clip0_67_800)">
<mask id="mask0_67_800" style="mask-type:luminance" maskUnits="userSpaceOnUse" x="0" y="0" width="35" height="25">
<path d="M35 0H0V25H35V0Z" fill="white"/>
</mask>
<g mask="url(#mask0_67_800)">
<path fill-rule="evenodd" clip-rule="evenodd" d="M33.9063 6.02667C33.9063 4.59609 33.3299 3.22376 32.305 2.21179C31.279 1.20088 29.8878 0.632324 28.4375 0.632324C22.6165 0.632324 12.3835 0.632324 6.5625 0.632324C5.11218 0.632324 3.72093 1.20088 2.695 2.21179C1.67015 3.22376 1.09375 4.59609 1.09375 6.02667C1.09375 9.78761 1.09375 15.2121 1.09375 18.9731C1.09375 20.4037 1.67015 21.776 2.695 22.788C3.72093 23.7989 5.11218 24.3675 6.5625 24.3675C12.3835 24.3675 22.6165 24.3675 28.4375 24.3675C29.8878 24.3675 31.279 23.7989 32.305 22.788C33.3299 21.776 33.9063 20.4037 33.9063 18.9731C33.9063 15.2121 33.9063 9.78761 33.9063 6.02667ZM4.86062 5.78824C4.86062 5.78824 10.488 10.3594 14.0175 13.226C16.0399 14.8691 18.9601 14.8658 20.9792 13.2185C24.5197 10.3303 30.181 5.71056 30.181 5.71056C30.6458 5.3308 30.7114 4.65003 30.3264 4.19151C29.9425 3.73299 29.2524 3.66826 28.7864 4.04803C28.7864 4.04803 23.1251 8.66666 19.5858 11.5559C18.3739 12.5442 16.6217 12.5463 15.4076 11.5602L6.25078 4.12247C5.78485 3.74378 5.09578 3.8096 4.71187 4.26919C4.32797 4.72879 4.39468 5.40956 4.86062 5.78824Z" fill="#474747"/>
</g>
</g>
<defs>
<clipPath id="clip0_67_800">
<rect width="35" height="25" fill="white"/>
</clipPath>
</defs>
</svg>
