<svg width="28" height="20" viewBox="0 0 28 20" fill="none" xmlns="http://www.w3.org/2000/svg">
<g clip-path="url(#clip0_67_2692)">
<path fill-rule="evenodd" clip-rule="evenodd" d="M27.125 4.82143C27.125 3.67696 26.6639 2.57911 25.844 1.76952C25.0232 0.960802 23.9102 0.505951 22.75 0.505951C18.0932 0.505951 9.90675 0.505951 5.25 0.505951C4.08975 0.505951 2.97675 0.960802 2.156 1.76952C1.33613 2.57911 0.875 3.67696 0.875 4.82143C0.875 7.83018 0.875 12.1698 0.875 15.1786C0.875 16.323 1.33613 17.4209 2.156 18.2305C2.97675 19.0392 4.08975 19.494 5.25 19.494C9.90675 19.494 18.0932 19.494 22.75 19.494C23.9102 19.494 25.0232 19.0392 25.844 18.2305C26.6639 17.4209 27.125 16.323 27.125 15.1786C27.125 12.1698 27.125 7.83018 27.125 4.82143ZM3.8885 4.63068C3.8885 4.63068 8.39037 8.28762 11.214 10.5809C12.8319 11.8954 15.1681 11.8928 16.7834 10.5748C19.6157 8.26431 24.1447 4.56854 24.1447 4.56854C24.5166 4.26473 24.5691 3.72012 24.2611 3.3533C23.954 2.98649 23.4019 2.9347 23.0291 3.23851C23.0291 3.23851 18.5001 6.93342 15.6686 9.24479C14.6991 10.0354 13.2974 10.0371 12.3261 9.24824L5.00063 3.29806C4.62788 2.99512 4.07663 3.04777 3.7695 3.41545C3.46238 3.78312 3.51575 4.32774 3.8885 4.63068Z" fill="#111111"/>
</g>
<defs>
<clipPath id="clip0_67_2692">
<rect width="28" height="20" fill="white"/>
</clipPath>
</defs>
</svg>
