<svg width="37" height="24" viewBox="0 0 37 24" fill="none" xmlns="http://www.w3.org/2000/svg">
<g clip-path="url(#clip0_6_711)">
<mask id="mask0_6_711" style="mask-type:luminance" maskUnits="userSpaceOnUse" x="0" y="0" width="37" height="24">
<path d="M37 0H0V24H37V0Z" fill="white"/>
</mask>
<g mask="url(#mask0_6_711)">
<path d="M34.229 0.0197296H2.77102C1.24058 0.0197296 0 1.24594 0 2.75866V21.2415C0 22.7541 1.24058 23.9804 2.77102 23.9804H34.229C35.7593 23.9804 37 22.7541 37 21.2415V2.75866C37 1.24594 35.7594 0.0197296 34.229 0.0197296Z" fill="#F5F5F5"/>
<path d="M0.152405 1.86286H36.8475C36.4721 0.790211 35.4418 0.0197144 34.229 0.0197144H2.77102C1.55812 0.0197144 0.527969 0.790211 0.152405 1.86286Z" fill="#FF4B55"/>
<path d="M37 7.39214H0V9.23519H37V7.39214Z" fill="#FF4B55"/>
<path d="M37 3.70572H0V5.54879H37V3.70572Z" fill="#FF4B55"/>
<path d="M0 12.291C0 12.6392 0.285666 12.9216 0.637961 12.9216H37V11.0784H0V12.291Z" fill="#FF4B55"/>
<path d="M37 18.4514H0V20.2945H37V18.4514Z" fill="#FF4B55"/>
<path d="M36.8476 22.1372H0.152405C0.527969 23.2098 1.55819 23.9803 2.77102 23.9803H34.229C35.4419 23.9803 36.4721 23.2098 36.8476 22.1372Z" fill="#FF4B55"/>
<path d="M37 14.765H0V16.6081H37V14.765Z" fill="#FF4B55"/>
<path d="M0.637961 12.9216H16.5862C16.9385 12.9216 17.2242 12.6392 17.2242 12.291V0.650209C17.2242 0.301924 16.9385 0.0196381 16.5862 0.0196381H2.77102C1.24058 0.0197095 0 1.24592 0 2.75864V12.291C0 12.6393 0.285666 12.9216 0.637961 12.9216Z" fill="#41479B"/>
<path d="M1.79138 1.46701L1.93259 1.88558L2.37898 1.88894C2.43678 1.88944 2.46071 1.9623 2.41424 1.99622L2.05515 2.2583L2.18986 2.67894C2.20734 2.73337 2.14454 2.77852 2.0975 2.74523L1.73436 2.48873L1.37123 2.7453C1.32419 2.77858 1.26153 2.73344 1.27887 2.67901L1.41358 2.25837L1.05449 1.9963C1.00803 1.9623 1.03194 1.88944 1.08976 1.88901L1.53614 1.88566L1.67735 1.46708C1.69556 1.4128 1.77303 1.4128 1.79138 1.46701Z" fill="#F5F5F5"/>
<path d="M1.79138 3.65649L1.93259 4.07506L2.37898 4.07842C2.43678 4.07892 2.46071 4.15171 2.41424 4.18571L2.05515 4.44784L2.18986 4.86849C2.20734 4.92292 2.14454 4.96806 2.0975 4.93477L1.73436 4.67827L1.37123 4.93485C1.32419 4.96806 1.26153 4.92299 1.27887 4.86856L1.41358 4.44792L1.05449 4.18577C1.00803 4.15177 1.03194 4.07899 1.08976 4.07849L1.53614 4.07513L1.67735 3.65656C1.69556 3.60235 1.77303 3.60235 1.79138 3.65649Z" fill="#F5F5F5"/>
<path d="M1.79138 5.84614L1.93259 6.2647L2.37898 6.26806C2.43678 6.26857 2.46071 6.34135 2.41424 6.37535L2.05515 6.63749L2.18986 7.05814C2.20734 7.11256 2.14454 7.15771 2.0975 7.12442L1.73436 6.86792L1.37123 7.12449C1.32419 7.15771 1.26153 7.1127 1.27887 7.0582L1.41358 6.63756L1.05449 6.37542C1.00803 6.34142 1.03194 6.26863 1.08976 6.26814L1.53614 6.26478L1.67735 5.8462C1.69556 5.79192 1.77303 5.79192 1.79138 5.84614Z" fill="#F5F5F5"/>
<path d="M1.79138 8.0357L1.93259 8.45424L2.37898 8.45766C2.43678 8.4581 2.46071 8.53097 2.41424 8.56494L2.05515 8.82704L2.18986 9.2477C2.20734 9.3021 2.14454 9.34726 2.0975 9.31395L1.73436 9.05752L1.37123 9.31403C1.32419 9.34726 1.26153 9.30217 1.27887 9.24777L1.41358 8.82712L1.05449 8.56501C1.00803 8.53112 1.03194 8.45817 1.08976 8.45774L1.53614 8.45432L1.67735 8.03577C1.69556 7.98152 1.77303 7.98152 1.79138 8.0357Z" fill="#F5F5F5"/>
<path d="M1.79138 10.2253L1.93259 10.6438L2.37898 10.6472C2.43678 10.6477 2.46071 10.7205 2.41424 10.7545L2.05515 11.0166L2.18986 11.4373C2.20734 11.4917 2.14454 11.5369 2.0975 11.5036L1.73436 11.247L1.37123 11.5036C1.32419 11.5369 1.26153 11.4918 1.27887 11.4374L1.41358 11.0167L1.05449 10.7545C1.00803 10.7206 1.03194 10.6478 1.08976 10.6473L1.53614 10.6439L1.67735 10.2254C1.69556 10.1711 1.77303 10.1711 1.79138 10.2253Z" fill="#F5F5F5"/>
<path d="M3.51081 2.54043L3.65201 2.95899L4.0984 2.96235C4.15621 2.96285 4.18013 3.03571 4.13366 3.06964L3.77458 3.33179L3.90928 3.75243C3.92677 3.80685 3.86397 3.852 3.81692 3.81871L3.45379 3.56214L3.09066 3.81871C3.04361 3.85192 2.98095 3.80685 2.9983 3.75243L3.133 3.33179L2.77391 3.06964C2.72745 3.03564 2.75137 2.96285 2.80918 2.96235L3.25557 2.95899L3.39677 2.54043C3.41498 2.48628 3.49252 2.48628 3.51081 2.54043Z" fill="#F5F5F5"/>
<path d="M3.51081 4.73007L3.65201 5.14864L4.0984 5.152C4.15621 5.1525 4.18013 5.22536 4.13366 5.25929L3.77458 5.52142L3.90928 5.94207C3.92677 5.9965 3.86397 6.04164 3.81692 6.00835L3.45379 5.75178L3.09066 6.00835C3.04361 6.04157 2.98095 5.99657 2.9983 5.94207L3.133 5.52142L2.77391 5.25929C2.72745 5.22542 2.75137 5.1525 2.80918 5.152L3.25557 5.14864L3.39677 4.73007C3.41498 4.67585 3.49252 4.67585 3.51081 4.73007Z" fill="#F5F5F5"/>
<path d="M3.51081 6.91965L3.65201 7.33818L4.0984 7.3416C4.15621 7.34204 4.18013 7.41484 4.13366 7.44888L3.77458 7.71098L3.90928 8.13164C3.92677 8.18604 3.86397 8.2312 3.81692 8.19797L3.45379 7.94138L3.09066 8.19797C3.04361 8.23113 2.98095 8.18604 2.9983 8.13164L3.133 7.71098L2.77391 7.44888C2.72745 7.41484 2.75137 7.34204 2.80918 7.3416L3.25557 7.33818L3.39677 6.91965C3.41498 6.86543 3.49252 6.86543 3.51081 6.91965Z" fill="#F5F5F5"/>
<path d="M3.51081 9.10924L3.65201 9.52779L4.0984 9.53113C4.15621 9.53164 4.18013 9.60444 4.13366 9.6384L3.77458 9.90059L3.90928 10.3212C3.92677 10.3756 3.86397 10.4208 3.81692 10.3875L3.45379 10.1309L3.09066 10.3875C3.04361 10.4208 2.98095 10.3756 2.9983 10.3212L3.133 9.90059L2.77391 9.6384C2.72745 9.60444 2.75137 9.53164 2.80918 9.53113L3.25557 9.52779L3.39677 9.10924C3.41498 9.05506 3.49252 9.05506 3.51081 9.10924Z" fill="#F5F5F5"/>
<path d="M5.23023 1.46693L5.37143 1.8855L5.81782 1.88886C5.87563 1.88936 5.89955 1.96221 5.85309 1.99615L5.494 2.25821L5.6287 2.67886C5.64619 2.73329 5.58339 2.77843 5.53634 2.74514L5.17321 2.48857L4.81008 2.74514C4.76303 2.77843 4.70038 2.73329 4.71772 2.67886L4.85242 2.25821L4.49334 1.99615C4.44687 1.96215 4.47079 1.88929 4.5286 1.88886L4.97499 1.8855L5.11619 1.46693C5.1344 1.41271 5.21194 1.41271 5.23023 1.46693Z" fill="#F5F5F5"/>
<path d="M5.23023 3.6565L5.37143 4.07507L5.81782 4.07843C5.87563 4.07893 5.89955 4.15171 5.85309 4.18571L5.494 4.44785L5.6287 4.8685C5.64619 4.92293 5.58339 4.96807 5.53634 4.93478L5.17321 4.67821L4.81008 4.93478C4.76303 4.968 4.70038 4.92293 4.71772 4.8685L4.85242 4.44785L4.49334 4.18571C4.44687 4.15171 4.47079 4.07893 4.5286 4.07843L4.97499 4.07507L5.11619 3.6565C5.1344 3.60235 5.21194 3.60235 5.23023 3.6565Z" fill="#F5F5F5"/>
<path d="M5.23023 5.84614L5.37143 6.26471L5.81782 6.26807C5.87563 6.26857 5.89955 6.34136 5.85309 6.37536L5.494 6.6375L5.6287 7.05814C5.64619 7.11257 5.58339 7.15772 5.53634 7.12443L5.17321 6.86785L4.81008 7.12443C4.76303 7.15764 4.70038 7.11264 4.71772 7.05814L4.85242 6.6375L4.49334 6.37536C4.44687 6.34136 4.47079 6.26857 4.5286 6.26807L4.97499 6.26471L5.11619 5.84614C5.1344 5.79193 5.21194 5.79193 5.23023 5.84614Z" fill="#F5F5F5"/>
<path d="M5.23023 8.03571L5.37143 8.45425L5.81782 8.45767C5.87563 8.45811 5.89955 8.53098 5.85309 8.56494L5.494 8.82705L5.6287 9.24771C5.64619 9.30211 5.58339 9.34727 5.53634 9.31396L5.17321 9.05745L4.81008 9.31396C4.76303 9.3472 4.70038 9.30211 4.71772 9.24771L4.85242 8.82705L4.49334 8.56494C4.44687 8.53105 4.47079 8.45811 4.5286 8.45767L4.97499 8.45425L5.11619 8.03571C5.1344 7.98153 5.21194 7.98153 5.23023 8.03571Z" fill="#F5F5F5"/>
<path d="M5.23023 10.2253L5.37143 10.6438L5.81782 10.6472C5.87563 10.6477 5.89955 10.7205 5.85309 10.7545L5.494 11.0166L5.6287 11.4373C5.64619 11.4917 5.58339 11.5369 5.53634 11.5036L5.17321 11.247L4.81008 11.5036C4.76303 11.5368 4.70038 11.4917 4.71772 11.4373L4.85242 11.0166L4.49334 10.7545C4.44687 10.7205 4.47079 10.6477 4.5286 10.6472L4.97499 10.6438L5.11619 10.2253C5.1344 10.1711 5.21194 10.1711 5.23023 10.2253Z" fill="#F5F5F5"/>
<path d="M6.94971 2.54043L7.09092 2.95899L7.53733 2.96235C7.59508 2.96285 7.61902 3.03571 7.57259 3.06964L7.21348 3.33179L7.3482 3.75243C7.36568 3.80685 7.30285 3.852 7.25584 3.81871L6.89269 3.56214L6.52956 3.81871C6.48251 3.85192 6.41986 3.80685 6.4372 3.75243L6.57191 3.33179L6.21282 3.06964C6.16635 3.03564 6.19027 2.96285 6.24808 2.96235L6.69447 2.95899L6.83567 2.54043C6.85381 2.48628 6.93142 2.48628 6.94971 2.54043Z" fill="#F5F5F5"/>
<path d="M6.94971 4.73007L7.09092 5.14864L7.53733 5.152C7.59508 5.1525 7.61902 5.22536 7.57259 5.25929L7.21348 5.52142L7.3482 5.94207C7.36568 5.9965 7.30285 6.04164 7.25584 6.00835L6.89269 5.75178L6.52956 6.00835C6.48251 6.04157 6.41986 5.99657 6.4372 5.94207L6.57191 5.52142L6.21282 5.25929C6.16635 5.22542 6.19027 5.1525 6.24808 5.152L6.69447 5.14864L6.83567 4.73007C6.85381 4.67585 6.93142 4.67585 6.94971 4.73007Z" fill="#F5F5F5"/>
<path d="M6.94971 6.91965L7.09092 7.33818L7.53733 7.3416C7.59508 7.34204 7.61902 7.41484 7.57259 7.44888L7.21348 7.71098L7.3482 8.13164C7.36568 8.18604 7.30285 8.2312 7.25584 8.19797L6.89269 7.94138L6.52956 8.19797C6.48251 8.23113 6.41986 8.18604 6.4372 8.13164L6.57191 7.71098L6.21282 7.44888C6.16635 7.41484 6.19027 7.34204 6.24808 7.3416L6.69447 7.33818L6.83567 6.91965C6.85381 6.86543 6.93142 6.86543 6.94971 6.91965Z" fill="#F5F5F5"/>
<path d="M6.94971 9.10924L7.09092 9.52779L7.53733 9.53113C7.59508 9.53164 7.61902 9.60444 7.57259 9.6384L7.21348 9.90059L7.3482 10.3212C7.36568 10.3756 7.30285 10.4208 7.25584 10.3875L6.89269 10.1309L6.52956 10.3875C6.48251 10.4208 6.41986 10.3756 6.4372 10.3212L6.57191 9.90059L6.21282 9.6384C6.16635 9.60444 6.19027 9.53164 6.24808 9.53113L6.69447 9.52779L6.83567 9.10924C6.85381 9.05506 6.93142 9.05506 6.94971 9.10924Z" fill="#F5F5F5"/>
<path d="M8.66912 1.46693L8.81037 1.88549L9.25677 1.88885C9.31459 1.88935 9.33846 1.9622 9.29203 1.99614L8.93291 2.25821L9.06763 2.67885C9.08512 2.73328 9.02229 2.77842 8.97528 2.74514L8.61202 2.48863L8.24892 2.74521C8.2019 2.7785 8.13922 2.73335 8.15656 2.67893L8.29128 2.25828L7.93217 1.99621C7.88574 1.96221 7.9096 1.88935 7.96742 1.88893L8.41382 1.88556L8.55507 1.46699C8.57335 1.41271 8.65084 1.41271 8.66912 1.46693Z" fill="#F5F5F5"/>
<path d="M8.66912 3.6565L8.81037 4.07507L9.25677 4.07843C9.31459 4.07893 9.33846 4.15171 9.29203 4.18571L8.93291 4.44785L9.06763 4.8685C9.08512 4.92293 9.02229 4.96807 8.97528 4.93478L8.61202 4.67821L8.24892 4.93478C8.2019 4.968 8.13922 4.92293 8.15656 4.8685L8.29128 4.44785L7.93217 4.18571C7.88574 4.15171 7.9096 4.07893 7.96742 4.07843L8.41382 4.07507L8.55507 3.6565C8.57335 3.60235 8.65084 3.60235 8.66912 3.6565Z" fill="#F5F5F5"/>
<path d="M8.66912 5.84614L8.81037 6.26471L9.25677 6.26807C9.31459 6.26857 9.33846 6.34135 9.29203 6.37535L8.93291 6.63749L9.06763 7.05814C9.08512 7.11257 9.02229 7.15771 8.97528 7.12442L8.61202 6.86778L8.24892 7.12435C8.2019 7.15756 8.13922 7.11249 8.15656 7.05807L8.29128 6.63742L7.93217 6.37528C7.88574 6.34128 7.9096 6.26849 7.96742 6.26799L8.41382 6.26463L8.55507 5.84607C8.57335 5.79192 8.65084 5.79192 8.66912 5.84614Z" fill="#F5F5F5"/>
<path d="M8.66912 8.03571L8.81037 8.45425L9.25677 8.45767C9.31459 8.45811 9.33846 8.53098 9.29203 8.56494L8.93291 8.82705L9.06763 9.24771C9.08512 9.30211 9.02229 9.34727 8.97528 9.31396L8.61202 9.05745L8.24892 9.31396C8.2019 9.3472 8.13922 9.30211 8.15656 9.24771L8.29128 8.82705L7.93217 8.56494C7.88574 8.53105 7.9096 8.45811 7.96742 8.45767L8.41382 8.45425L8.55507 8.03571C8.57335 7.98153 8.65084 7.98153 8.66912 8.03571Z" fill="#F5F5F5"/>
<path d="M8.66912 10.2253L8.81037 10.6438L9.25677 10.6472C9.31459 10.6477 9.33846 10.7205 9.29203 10.7545L8.93291 11.0166L9.06763 11.4373C9.08512 11.4917 9.02229 11.5369 8.97528 11.5036L8.61202 11.247L8.24892 11.5036C8.2019 11.5368 8.13922 11.4917 8.15656 11.4373L8.29128 11.0166L7.93217 10.7545C7.88574 10.7205 7.9096 10.6477 7.96742 10.6472L8.41382 10.6438L8.55507 10.2253C8.57335 10.1711 8.65084 10.1711 8.66912 10.2253Z" fill="#F5F5F5"/>
<path d="M10.3885 2.54043L10.5298 2.95899L10.9762 2.96235C11.034 2.96285 11.0579 3.03571 11.0114 3.06964L10.6523 3.33179L10.787 3.75243C10.8045 3.80685 10.7417 3.852 10.6947 3.81871L10.3315 3.56214L9.9684 3.81871C9.92139 3.85192 9.8587 3.80685 9.87604 3.75243L10.0108 3.33179L9.65165 3.06964C9.60522 3.03564 9.62909 2.96285 9.68691 2.96235L10.1333 2.95899L10.2746 2.54043C10.2928 2.48628 10.3702 2.48628 10.3885 2.54043Z" fill="#F5F5F5"/>
<path d="M10.3885 4.73007L10.5298 5.14864L10.9762 5.152C11.034 5.1525 11.0579 5.22536 11.0114 5.25929L10.6523 5.52142L10.787 5.94207C10.8045 5.9965 10.7417 6.04164 10.6947 6.00835L10.3315 5.75178L9.9684 6.00835C9.92139 6.04157 9.8587 5.99657 9.87604 5.94207L10.0108 5.52142L9.65165 5.25929C9.60522 5.22542 9.62909 5.1525 9.68691 5.152L10.1333 5.14864L10.2746 4.73007C10.2928 4.67585 10.3702 4.67585 10.3885 4.73007Z" fill="#F5F5F5"/>
<path d="M10.3885 6.91965L10.5298 7.33818L10.9762 7.3416C11.034 7.34204 11.0579 7.41484 11.0114 7.44888L10.6523 7.71098L10.787 8.13164C10.8045 8.18604 10.7417 8.2312 10.6947 8.19797L10.3315 7.94138L9.9684 8.19797C9.92139 8.23113 9.8587 8.18604 9.87604 8.13164L10.0108 7.71098L9.65165 7.44888C9.60522 7.41484 9.62909 7.34204 9.68691 7.3416L10.1333 7.33818L10.2746 6.91965C10.2928 6.86543 10.3702 6.86543 10.3885 6.91965Z" fill="#F5F5F5"/>
<path d="M10.3885 9.10924L10.5298 9.52779L10.9762 9.53113C11.034 9.53164 11.0579 9.60444 11.0114 9.6384L10.6523 9.90059L10.787 10.3212C10.8045 10.3756 10.7417 10.4208 10.6947 10.3875L10.3315 10.1309L9.9684 10.3875C9.92139 10.4208 9.8587 10.3756 9.87604 10.3212L10.0108 9.90059L9.65165 9.6384C9.60522 9.60444 9.62909 9.53164 9.68691 9.53113L10.1333 9.52779L10.2746 9.10924C10.2928 9.05506 10.3702 9.05506 10.3885 9.10924Z" fill="#F5F5F5"/>
<path d="M12.108 1.46693L12.2493 1.8855L12.6957 1.88886C12.7535 1.88936 12.7773 1.96221 12.7309 1.99615L12.3718 2.25821L12.5065 2.67886C12.524 2.73329 12.4612 2.77843 12.4142 2.74514L12.0511 2.48857L11.6879 2.74514C11.6409 2.77843 11.5782 2.73329 11.5955 2.67886L11.7302 2.25821L11.3711 1.99615C11.3247 1.96215 11.3486 1.88929 11.4064 1.88886L11.8528 1.8855L11.994 1.46693C12.0122 1.41271 12.0897 1.41271 12.108 1.46693Z" fill="#F5F5F5"/>
<path d="M12.108 3.6565L12.2493 4.07507L12.6957 4.07843C12.7535 4.07893 12.7773 4.15171 12.7309 4.18571L12.3718 4.44785L12.5065 4.8685C12.524 4.92293 12.4612 4.96807 12.4142 4.93478L12.0511 4.67821L11.6879 4.93478C11.6409 4.968 11.5782 4.92293 11.5955 4.8685L11.7302 4.44785L11.3711 4.18571C11.3247 4.15171 11.3486 4.07893 11.4064 4.07843L11.8528 4.07507L11.994 3.6565C12.0122 3.60235 12.0897 3.60235 12.108 3.6565Z" fill="#F5F5F5"/>
<path d="M12.108 5.84614L12.2493 6.26471L12.6957 6.26807C12.7535 6.26857 12.7773 6.34136 12.7309 6.37536L12.3718 6.6375L12.5065 7.05814C12.524 7.11257 12.4612 7.15772 12.4142 7.12443L12.0511 6.86785L11.6879 7.12443C11.6409 7.15764 11.5782 7.11264 11.5955 7.05814L11.7302 6.6375L11.3711 6.37536C11.3247 6.34136 11.3486 6.26857 11.4064 6.26807L11.8528 6.26471L11.994 5.84614C12.0122 5.79193 12.0897 5.79193 12.108 5.84614Z" fill="#F5F5F5"/>
<path d="M12.108 8.03571L12.2493 8.45425L12.6957 8.45767C12.7535 8.45811 12.7773 8.53098 12.7309 8.56494L12.3718 8.82705L12.5065 9.24771C12.524 9.30211 12.4612 9.34727 12.4142 9.31396L12.0511 9.05745L11.6879 9.31396C11.6409 9.3472 11.5782 9.30211 11.5955 9.24771L11.7302 8.82705L11.3711 8.56494C11.3247 8.53105 11.3486 8.45811 11.4064 8.45767L11.8528 8.45425L11.994 8.03571C12.0122 7.98153 12.0897 7.98153 12.108 8.03571Z" fill="#F5F5F5"/>
<path d="M12.108 10.2253L12.2493 10.6438L12.6957 10.6472C12.7535 10.6477 12.7773 10.7205 12.7309 10.7545L12.3718 11.0166L12.5065 11.4373C12.524 11.4917 12.4612 11.5369 12.4142 11.5036L12.0511 11.247L11.6879 11.5036C11.6409 11.5368 11.5782 11.4917 11.5955 11.4373L11.7302 11.0166L11.3711 10.7545C11.3247 10.7205 11.3486 10.6477 11.4064 10.6472L11.8528 10.6438L11.994 10.2253C12.0122 10.1711 12.0897 10.1711 12.108 10.2253Z" fill="#F5F5F5"/>
<path d="M13.8275 2.54043L13.9687 2.95899L14.4151 2.96235C14.4729 2.96285 14.4968 3.03571 14.4503 3.06964L14.0912 3.33179L14.2259 3.75243C14.2434 3.80685 14.1806 3.852 14.1336 3.81871L13.7705 3.56214L13.4073 3.81871C13.3603 3.85192 13.2976 3.80685 13.3149 3.75243L13.4497 3.33179L13.0905 3.06964C13.0441 3.03564 13.068 2.96285 13.1258 2.96235L13.5722 2.95899L13.7134 2.54043C13.7317 2.48628 13.8092 2.48628 13.8275 2.54043Z" fill="#F5F5F5"/>
<path d="M13.8275 4.73007L13.9687 5.14864L14.4151 5.152C14.4729 5.1525 14.4968 5.22536 14.4503 5.25929L14.0912 5.52142L14.2259 5.94207C14.2434 5.9965 14.1806 6.04164 14.1336 6.00835L13.7705 5.75178L13.4073 6.00835C13.3603 6.04157 13.2976 5.99657 13.3149 5.94207L13.4497 5.52142L13.0905 5.25929C13.0441 5.22542 13.068 5.1525 13.1258 5.152L13.5722 5.14864L13.7134 4.73007C13.7317 4.67585 13.8092 4.67585 13.8275 4.73007Z" fill="#F5F5F5"/>
<path d="M13.8275 6.91965L13.9687 7.33818L14.4151 7.3416C14.4729 7.34204 14.4968 7.41484 14.4503 7.44888L14.0912 7.71098L14.2259 8.13164C14.2434 8.18604 14.1806 8.2312 14.1336 8.19797L13.7705 7.94138L13.4073 8.19797C13.3603 8.23113 13.2976 8.18604 13.3149 8.13164L13.4497 7.71098L13.0905 7.44888C13.0441 7.41484 13.068 7.34204 13.1258 7.3416L13.5722 7.33818L13.7134 6.91965C13.7317 6.86543 13.8092 6.86543 13.8275 6.91965Z" fill="#F5F5F5"/>
<path d="M13.8275 9.10924L13.9687 9.52779L14.4151 9.53113C14.4729 9.53164 14.4968 9.60444 14.4503 9.6384L14.0912 9.90059L14.2259 10.3212C14.2434 10.3756 14.1806 10.4208 14.1336 10.3875L13.7705 10.1309L13.4073 10.3875C13.3603 10.4208 13.2976 10.3756 13.3149 10.3212L13.4497 9.90059L13.0905 9.6384C13.0441 9.60444 13.068 9.53164 13.1258 9.53113L13.5722 9.52779L13.7134 9.10924C13.7317 9.05506 13.8092 9.05506 13.8275 9.10924Z" fill="#F5F5F5"/>
<path d="M15.547 1.46693L15.6882 1.8855L16.1345 1.88886C16.1924 1.88936 16.2162 1.96221 16.1698 1.99615L15.8107 2.25821L15.9454 2.67886C15.9629 2.73329 15.9001 2.77843 15.8531 2.74514L15.4899 2.48857L15.1268 2.74514C15.0798 2.77843 15.0171 2.73329 15.0344 2.67886L15.1691 2.25821L14.81 1.99615C14.7636 1.96215 14.7875 1.88929 14.8453 1.88886L15.2917 1.8855L15.4329 1.46693C15.4511 1.41271 15.5286 1.41271 15.547 1.46693Z" fill="#F5F5F5"/>
<path d="M15.547 3.6565L15.6882 4.07507L16.1345 4.07843C16.1924 4.07893 16.2162 4.15171 16.1698 4.18571L15.8107 4.44785L15.9454 4.8685C15.9629 4.92293 15.9001 4.96807 15.8531 4.93478L15.4899 4.67821L15.1268 4.93478C15.0798 4.968 15.0171 4.92293 15.0344 4.8685L15.1691 4.44785L14.81 4.18571C14.7636 4.15171 14.7875 4.07893 14.8453 4.07843L15.2917 4.07507L15.4329 3.6565C15.4511 3.60235 15.5286 3.60235 15.547 3.6565Z" fill="#F5F5F5"/>
<path d="M15.547 5.84614L15.6882 6.26471L16.1345 6.26807C16.1924 6.26857 16.2162 6.34136 16.1698 6.37536L15.8107 6.6375L15.9454 7.05814C15.9629 7.11257 15.9001 7.15772 15.8531 7.12443L15.4899 6.86785L15.1268 7.12443C15.0798 7.15764 15.0171 7.11264 15.0344 7.05814L15.1691 6.6375L14.81 6.37536C14.7636 6.34136 14.7875 6.26857 14.8453 6.26807L15.2917 6.26471L15.4329 5.84614C15.4511 5.79193 15.5286 5.79193 15.547 5.84614Z" fill="#F5F5F5"/>
<path d="M15.547 8.03571L15.6882 8.45425L16.1345 8.45767C16.1924 8.45811 16.2162 8.53098 16.1698 8.56494L15.8107 8.82705L15.9454 9.24771C15.9629 9.30211 15.9001 9.34727 15.8531 9.31396L15.4899 9.05745L15.1268 9.31396C15.0798 9.3472 15.0171 9.30211 15.0344 9.24771L15.1691 8.82705L14.81 8.56494C14.7636 8.53105 14.7875 8.45811 14.8453 8.45767L15.2917 8.45425L15.4329 8.03571C15.4511 7.98153 15.5286 7.98153 15.547 8.03571Z" fill="#F5F5F5"/>
<path d="M15.547 10.2253L15.6882 10.6438L16.1345 10.6472C16.1924 10.6477 16.2162 10.7205 16.1698 10.7545L15.8107 11.0166L15.9454 11.4373C15.9629 11.4917 15.9001 11.5369 15.8531 11.5036L15.4899 11.247L15.1268 11.5036C15.0798 11.5368 15.0171 11.4917 15.0344 11.4373L15.1691 11.0166L14.81 10.7545C14.7636 10.7205 14.7875 10.6477 14.8453 10.6472L15.2917 10.6438L15.4329 10.2253C15.4511 10.1711 15.5286 10.1711 15.547 10.2253Z" fill="#F5F5F5"/>
</g>
</g>
<defs>
<clipPath id="clip0_6_711">
<rect width="37" height="24" fill="white"/>
</clipPath>
</defs>
</svg>
