<svg width="25" height="25" viewBox="0 0 25 25" fill="none" xmlns="http://www.w3.org/2000/svg">
<g clip-path="url(#clip0_67_783)">
<mask id="mask0_67_783" style="mask-type:luminance" maskUnits="userSpaceOnUse" x="0" y="0" width="25" height="25">
<path d="M25 0H0V25H25V0Z" fill="white"/>
</mask>
<g mask="url(#mask0_67_783)">
<path fill-rule="evenodd" clip-rule="evenodd" d="M21.5826 -0.26416C23.4637 -0.26416 24.9886 1.27757 24.9886 3.17937V21.5448C24.9886 23.4467 23.4637 24.9883 21.5826 24.9883H3.41723C1.53616 24.9883 0.0112305 23.4467 0.0112305 21.5448V3.17937C0.0112305 1.27757 1.53616 -0.26416 3.41723 -0.26416H21.5826ZM21.5826 2.03153C22.2096 2.03153 22.7179 2.54544 22.7179 3.17937V21.5448C22.7179 22.1787 22.2096 22.6926 21.5826 22.6926H15.9059V14.6576H18.2631C18.7517 14.6576 19.1855 14.3415 19.3402 13.8727L19.8431 12.3472C20.0269 11.7897 19.6165 11.2141 19.0353 11.2141H15.9059V8.91849C15.9059 8.34457 16.4736 7.77064 17.0412 7.77064H19.3119C19.939 7.77064 20.4472 7.25673 20.4472 6.6228V5.83539C20.4472 5.46462 20.213 5.13219 19.8583 5.03758C18.3702 4.64051 17.0412 4.64051 17.0412 4.64051C14.2029 4.64051 12.4999 6.6228 12.4999 8.34457V11.2141H10.2293C9.6022 11.2141 9.09389 11.728 9.09389 12.3619V13.5098C9.09389 14.1437 9.60219 14.6576 10.2293 14.6576H12.4999V22.6926H3.41723C2.79021 22.6926 2.2819 22.1787 2.2819 21.5448V3.17937C2.2819 2.54544 2.79021 2.03153 3.41723 2.03153H21.5826Z" fill="#474747"/>
</g>
</g>
<defs>
<clipPath id="clip0_67_783">
<rect width="25" height="25" fill="white"/>
</clipPath>
</defs>
</svg>
