<svg width="25" height="25" viewBox="0 0 25 25" fill="none" xmlns="http://www.w3.org/2000/svg">
<g clip-path="url(#clip0_67_2684)">
<path fill-rule="evenodd" clip-rule="evenodd" d="M21.5828 -0.264008C23.4639 -0.264008 24.9888 1.27772 24.9888 3.17952V21.545C24.9888 23.4469 23.4639 24.9885 21.5828 24.9885H3.41747C1.5364 24.9885 0.0114746 23.4469 0.0114746 21.545V3.17952C0.0114746 1.27772 1.5364 -0.264008 3.41747 -0.264008H21.5828ZM21.5828 2.03168C22.2098 2.03168 22.7181 2.54559 22.7181 3.17952V21.545C22.7181 22.1789 22.2098 22.6928 21.5828 22.6928H15.9061V14.6578H18.2633C18.7519 14.6578 19.1857 14.3417 19.3404 13.8729L19.8433 12.3474C20.0271 11.7899 19.6167 11.2143 19.0355 11.2143H15.9061V8.91864C15.9061 8.34472 16.4738 7.77079 17.0414 7.77079H19.3121C19.9392 7.77079 20.4474 7.25688 20.4474 6.62295V5.83554C20.4474 5.46477 20.2132 5.13234 19.8585 5.03773C18.3704 4.64066 17.0414 4.64066 17.0414 4.64066C14.2031 4.64066 12.5001 6.62295 12.5001 8.34472V11.2143H10.2295C9.60244 11.2143 9.09413 11.7282 9.09413 12.3621V13.51C9.09413 14.1439 9.60243 14.6578 10.2295 14.6578H12.5001V22.6928H3.41747C2.79045 22.6928 2.28214 22.1789 2.28214 21.545V3.17952C2.28214 2.54559 2.79045 2.03168 3.41747 2.03168H21.5828Z" fill="#111111"/>
</g>
<defs>
<clipPath id="clip0_67_2684">
<rect width="25" height="25" fill="white"/>
</clipPath>
</defs>
</svg>
