<svg width="25" height="26" viewBox="0 0 25 26" fill="none" xmlns="http://www.w3.org/2000/svg">
<g clip-path="url(#clip0_67_773)">
<mask id="mask0_67_773" style="mask-type:luminance" maskUnits="userSpaceOnUse" x="0" y="0" width="25" height="26">
<path d="M25 0.804688H0V25.7107H25V0.804688Z" fill="white"/>
</mask>
<g mask="url(#mask0_67_773)">
<path fill-rule="evenodd" clip-rule="evenodd" d="M12.4999 19.8858C16.1744 19.8858 19.1531 16.9183 19.1531 13.2576C19.1531 9.59695 16.1744 6.62939 12.4999 6.62939C8.82543 6.62939 5.84668 9.59695 5.84668 13.2576C5.84668 16.9183 8.82543 19.8858 12.4999 19.8858ZM12.4999 17.6764C14.9495 17.6764 16.9354 15.698 16.9354 13.2576C16.9354 10.8171 14.9495 8.8388 12.4999 8.8388C10.0503 8.8388 8.06442 10.8171 8.06442 13.2576C8.06442 15.698 10.0503 17.6764 12.4999 17.6764Z" fill="#474747"/>
<path d="M19.1528 5.5249C18.5404 5.5249 18.0439 6.0195 18.0439 6.6296C18.0439 7.23971 18.5404 7.7343 19.1528 7.7343C19.7652 7.7343 20.2617 7.23971 20.2617 6.6296C20.2617 6.0195 19.7652 5.5249 19.1528 5.5249Z" fill="#474747"/>
<path fill-rule="evenodd" clip-rule="evenodd" d="M1.02741 4.72503C0.302246 6.14288 0.302246 7.99896 0.302246 11.7111V14.8043C0.302246 18.5164 0.302246 20.3725 1.02741 21.7903C1.66527 23.0375 2.68309 24.0516 3.93498 24.687C5.35818 25.4094 7.22126 25.4094 10.9475 25.4094H14.0523C17.7784 25.4094 19.6416 25.4094 21.0647 24.687C22.3166 24.0516 23.3344 23.0375 23.9723 21.7903C24.6975 20.3725 24.6975 18.5164 24.6975 14.8043V11.7111C24.6975 7.99896 24.6975 6.14288 23.9723 4.72503C23.3344 3.47784 22.3166 2.46386 21.0647 1.82839C19.6416 1.10596 17.7784 1.10596 14.0523 1.10596H10.9475C7.22126 1.10596 5.35818 1.10596 3.93498 1.82839C2.68309 2.46386 1.66527 3.47784 1.02741 4.72503ZM14.0523 3.31537H10.9475C9.04774 3.31537 7.75636 3.31709 6.75819 3.39832C5.78588 3.47746 5.28867 3.62091 4.94181 3.79698C4.10722 4.22063 3.42868 4.89662 3.00343 5.72807C2.82669 6.07363 2.68271 6.56898 2.60327 7.53762C2.52172 8.53204 2.51999 9.81857 2.51999 11.7111V14.8043C2.51999 16.6968 2.52172 17.9833 2.60327 18.9777C2.68271 19.9464 2.82669 20.4418 3.00343 20.7874C3.42868 21.6187 4.10722 22.2947 4.94181 22.7184C5.28867 22.8944 5.78588 23.038 6.75819 23.1171C7.75636 23.1983 9.04774 23.2 10.9475 23.2H14.0523C15.952 23.2 17.2433 23.1983 18.2415 23.1171C19.2139 23.038 19.7111 22.8944 20.0579 22.7184C20.8925 22.2947 21.571 21.6187 21.9962 20.7874C22.173 20.4418 22.317 19.9464 22.3964 18.9777C22.4779 17.9833 22.4797 16.6968 22.4797 14.8043V11.7111C22.4797 9.81857 22.4779 8.53204 22.3964 7.53762C22.317 6.56898 22.173 6.07363 21.9962 5.72807C21.571 4.89662 20.8925 4.22063 20.0579 3.79698C19.7111 3.62091 19.2139 3.47746 18.2415 3.39832C17.2433 3.31709 15.952 3.31537 14.0523 3.31537Z" fill="#474747"/>
</g>
</g>
<defs>
<clipPath id="clip0_67_773">
<rect width="25" height="24.906" fill="white" transform="translate(0 0.804688)"/>
</clipPath>
</defs>
</svg>
