<svg width="25" height="25" viewBox="0 0 25 25" fill="none" xmlns="http://www.w3.org/2000/svg">
<g clip-path="url(#clip0_67_2680)">
<path fill-rule="evenodd" clip-rule="evenodd" d="M12.4999 19.1532C16.1744 19.1532 19.1531 16.1745 19.1531 12.5C19.1531 8.82552 16.1744 5.84677 12.4999 5.84677C8.82543 5.84677 5.84668 8.82552 5.84668 12.5C5.84668 16.1745 8.82543 19.1532 12.4999 19.1532ZM12.4999 16.9355C14.9495 16.9355 16.9354 14.9496 16.9354 12.5C16.9354 10.0503 14.9495 8.06451 12.4999 8.06451C10.0503 8.06451 8.06442 10.0503 8.06442 12.5C8.06442 14.9496 10.0503 16.9355 12.4999 16.9355Z" fill="#111111"/>
<path d="M19.1533 4.7379C18.5409 4.7379 18.0444 5.23436 18.0444 5.84677C18.0444 6.45918 18.5409 6.95564 19.1533 6.95564C19.7657 6.95564 20.2622 6.45918 20.2622 5.84677C20.2622 5.23436 19.7657 4.7379 19.1533 4.7379Z" fill="#111111"/>
<path fill-rule="evenodd" clip-rule="evenodd" d="M1.02765 3.93514C0.30249 5.35834 0.30249 7.22143 0.30249 10.9476V14.0524C0.30249 17.7786 0.30249 19.6417 1.02765 21.0648C1.66551 22.3167 2.68333 23.3346 3.93522 23.9724C5.35842 24.6976 7.2215 24.6976 10.9477 24.6976H14.0525C17.7786 24.6976 19.6418 24.6976 21.0649 23.9724C22.3168 23.3346 23.3346 22.3167 23.9725 21.0648C24.6977 19.6417 24.6977 17.7786 24.6977 14.0524V10.9476C24.6977 7.22143 24.6977 5.35834 23.9725 3.93514C23.3346 2.68325 22.3168 1.66544 21.0649 1.02757C19.6418 0.302414 17.7786 0.302414 14.0525 0.302414H10.9477C7.2215 0.302414 5.35842 0.302414 3.93522 1.02757C2.68333 1.66544 1.66551 2.68325 1.02765 3.93514ZM14.0525 2.52016H10.9477C9.04798 2.52016 7.7566 2.52189 6.75843 2.60343C5.78612 2.68287 5.28891 2.82686 4.94205 3.00359C4.10746 3.42884 3.42892 4.10738 3.00367 4.94197C2.82693 5.28883 2.68295 5.78605 2.60351 6.75835C2.52196 7.75652 2.52023 9.0479 2.52023 10.9476V14.0524C2.52023 15.9521 2.52196 17.2434 2.60351 18.2416C2.68295 19.214 2.82693 19.7112 3.00367 20.0581C3.42892 20.8926 4.10746 21.5711 4.94205 21.9964C5.28891 22.1731 5.78612 22.3172 6.75843 22.3966C7.7566 22.4781 9.04798 22.4798 10.9477 22.4798H14.0525C15.9522 22.4798 17.2435 22.4781 18.2417 22.3966C19.2141 22.3172 19.7113 22.1731 20.0581 21.9964C20.8927 21.5711 21.5712 20.8926 21.9964 20.0581C22.1732 19.7112 22.3172 19.214 22.3966 18.2416C22.4781 17.2434 22.4799 15.9521 22.4799 14.0524V10.9476C22.4799 9.0479 22.4781 7.75652 22.3966 6.75835C22.3172 5.78605 22.1732 5.28883 21.9964 4.94197C21.5712 4.10738 20.8927 3.42884 20.0581 3.00359C19.7113 2.82686 19.2141 2.68287 18.2417 2.60343C17.2435 2.52189 15.9522 2.52016 14.0525 2.52016Z" fill="#111111"/>
</g>
<defs>
<clipPath id="clip0_67_2680">
<rect width="25" height="25" fill="white"/>
</clipPath>
</defs>
</svg>
