<svg width="25" height="25" viewBox="0 0 25 25" fill="none" xmlns="http://www.w3.org/2000/svg">
<g clip-path="url(#clip0_67_762)">
<mask id="mask0_67_762" style="mask-type:luminance" maskUnits="userSpaceOnUse" x="0" y="0" width="25" height="25">
<path d="M25 0H0V25H25V0Z" fill="white"/>
</mask>
<g mask="url(#mask0_67_762)">
<path d="M6.3125 8C7.24448 8 8 7.24448 8 6.3125C8 5.38052 7.24448 4.625 6.3125 4.625C5.38052 4.625 4.625 5.38052 4.625 6.3125C4.625 7.24448 5.38052 8 6.3125 8Z" fill="#474747"/>
<path d="M4.625 10.25C4.625 9.62868 5.12868 9.125 5.75 9.125H6.875C7.49631 9.125 8 9.62867 8 10.25V19.25C8 19.8713 7.49631 20.375 6.875 20.375H5.75C5.12868 20.375 4.625 19.8713 4.625 19.25V10.25Z" fill="#474747"/>
<path d="M11.375 20.375H12.5C13.1213 20.375 13.625 19.8713 13.625 19.25V14.1875C13.625 12.5 17 11.375 17 13.625V19.2504C17 19.8718 17.5037 20.375 18.125 20.375H19.25C19.8713 20.375 20.375 19.8713 20.375 19.25V12.5C20.375 10.25 18.6875 9.125 16.4375 9.125C14.1875 9.125 13.625 10.8125 13.625 10.8125V10.25C13.625 9.62867 13.1213 9.125 12.5 9.125H11.375C10.7537 9.125 10.25 9.62868 10.25 10.25V19.25C10.25 19.8713 10.7537 20.375 11.375 20.375Z" fill="#474747"/>
<path fill-rule="evenodd" clip-rule="evenodd" d="M21.5 0.125C23.364 0.125 24.875 1.63604 24.875 3.5V21.5C24.875 23.364 23.364 24.875 21.5 24.875H3.5C1.63604 24.875 0.125 23.364 0.125 21.5V3.5C0.125 1.63604 1.63604 0.125 3.5 0.125H21.5ZM21.5 2.375C22.1213 2.375 22.625 2.87868 22.625 3.5V21.5C22.625 22.1213 22.1213 22.625 21.5 22.625H3.5C2.87868 22.625 2.375 22.1213 2.375 21.5V3.5C2.375 2.87868 2.87868 2.375 3.5 2.375H21.5Z" fill="#474747"/>
</g>
</g>
<defs>
<clipPath id="clip0_67_762">
<rect width="25" height="25" fill="white"/>
</clipPath>
</defs>
</svg>
