<svg width="78" height="58" viewBox="0 0 78 58" fill="none" xmlns="http://www.w3.org/2000/svg">
<g clip-path="url(#clip0_67_2541)">
<mask id="mask0_67_2541" style="mask-type:luminance" maskUnits="userSpaceOnUse" x="0" y="0" width="78" height="58">
<path d="M78 0H0V58H78V0Z" fill="white"/>
</mask>
<g mask="url(#mask0_67_2541)">
<path d="M18.5832 50.0758C18.1408 50.8371 17.3025 51.1831 16.3477 51.1831C15.0204 51.1831 14.089 50.4218 13.9026 49.1531H22.6817V47.7229C22.3557 44.678 19.8407 42.6019 16.3477 42.6019C12.6452 42.6019 9.92065 44.9548 9.92065 48.6456C9.92065 52.3365 12.6452 54.6893 16.3477 54.6893C19.5147 54.6893 21.9598 53.0054 22.6817 50.814V50.0758H18.5832ZM16.3477 45.8314C17.4422 45.8314 18.164 46.2927 18.56 47.1001H14.1355C14.5314 46.2927 15.3232 45.8314 16.3477 45.8314ZM33.7079 54.4125H37.8529V53.6744L33.9174 48.8071V48.2534L37.6665 43.6169V42.8787H33.6379L31.5655 45.5546H31.2861L29.1204 42.8787H24.9754V43.6169L28.7711 48.3227V48.8994L24.8589 53.6744V54.4125H28.8875L31.0998 51.5752H31.4025L33.7079 54.4125ZM29.004 48.5995L28.9806 48.6456V48.5764L29.004 48.5995ZM33.6846 48.5302H33.7079V48.5533L33.6846 48.5302Z" fill="#FF8B17"/>
<path d="M40.031 58.0062H43.9431V53.3465C44.828 54.2231 46.0389 54.7075 47.4129 54.7075C50.4168 54.7075 52.6057 52.3546 52.6057 48.6638C52.6057 44.973 50.4168 42.62 47.4129 42.62C46.0389 42.62 44.828 43.1275 43.9431 44.0041V42.8968H40.031V58.0062ZM46.2253 46.2647C47.6922 46.2647 48.647 47.1644 48.647 48.6638C48.647 50.1632 47.6922 51.0629 46.2253 51.0629C44.7582 51.0629 43.8034 50.1632 43.8034 48.6638C43.8034 47.1644 44.7582 46.2647 46.2253 46.2647ZM61.6293 54.7075C65.3318 54.7075 68.0564 52.3546 68.0564 48.6638C68.0564 44.973 65.3318 42.62 61.6293 42.62C57.9268 42.62 55.2022 44.973 55.2022 48.6638C55.2022 52.3546 57.9268 54.7075 61.6293 54.7075ZM61.6293 46.2647C63.1196 46.2647 64.0977 47.1644 64.0977 48.6638C64.0977 50.1632 63.1196 51.0629 61.6293 51.0629C60.139 51.0629 59.161 50.1632 59.161 48.6638C59.161 47.1644 60.139 46.2647 61.6293 46.2647Z" fill="#111111"/>
<path fill-rule="evenodd" clip-rule="evenodd" d="M41.7087 -0.0059967H75.2609C76.7498 -0.0059967 77.9682 1.20084 77.9682 2.67587V37.9243C77.9682 39.3994 76.7498 40.6062 75.2609 40.6062H41.7087C40.2197 40.6062 39.0013 39.3994 39.0013 37.9243V2.67587C39.0013 1.20084 40.2197 -0.0059967 41.7087 -0.0059967Z" fill="#FF8B17"/>
<path fill-rule="evenodd" clip-rule="evenodd" d="M2.74182 -0.00468445H36.294C37.783 -0.00468445 39.0013 1.20215 39.0013 2.67714V37.9257C39.0013 39.4006 37.783 40.6075 36.294 40.6075H2.74182C1.25283 40.6075 0.0345459 39.4006 0.0345459 37.9257V2.67714C0.0345459 1.20215 1.25283 -0.00468445 2.74182 -0.00468445Z" fill="#111111"/>
<path d="M46.877 34.6967H71.7043V28.0766H61.0577C66.6493 24.4982 71.0332 19.8014 71.0332 14.7469C71.0332 8.75297 65.9783 4.77194 59.2236 4.77194C53.095 4.77194 47.3691 8.93189 45.9823 14.1653V16.044H53.8555C54.3923 13.5392 56.1369 11.8393 58.821 11.8393C61.505 11.8393 63.2943 13.3602 63.2943 15.6414C63.2943 21.0986 52.1108 26.2255 46.877 28.0594V34.6967Z" fill="#111111"/>
<path d="M3.64636 33.3956V35.0392H11.3143L13.2424 30.3307H26.5155L28.4437 35.0392H36.3359V33.3956L24.408 6.16621H15.3501L3.64636 33.3956ZM19.5203 14.8725H20.1929L23.8251 23.7565H15.9329L19.5203 14.8725Z" fill="#FF8B17"/>
</g>
</g>
<defs>
<clipPath id="clip0_67_2541">
<rect width="78" height="58" fill="white"/>
</clipPath>
</defs>
</svg>
