<svg width="80" height="46" viewBox="0 0 80 46" fill="none" xmlns="http://www.w3.org/2000/svg">
<g clip-path="url(#clip0_67_2488)">
<path d="M1.2356 35.9836V44.5228H79.5447V35.9836H1.2356Z" stroke="#FF8B17" stroke-width="3.05" stroke-miterlimit="10" stroke-linecap="round" stroke-linejoin="round"/>
<path d="M24.3252 27.4435V35.9828H79.5447V27.4435H24.3252Z" stroke="#FF8B17" stroke-width="3.05" stroke-miterlimit="10" stroke-linecap="round" stroke-linejoin="round"/>
<path d="M1.2356 27.4435V35.9828H24.3252V27.4435H1.2356Z" stroke="#FF8B17" stroke-width="3.05" stroke-miterlimit="10" stroke-linecap="round" stroke-linejoin="round"/>
<path d="M64.7625 18.7856V27.3248H79.5447V18.7856H64.7625Z" stroke="#FF8B17" stroke-width="3.05" stroke-miterlimit="10" stroke-linecap="round" stroke-linejoin="round"/>
<path d="M1.2356 18.7856V27.3248H64.7625V18.7856H1.2356Z" stroke="#FF8B17" stroke-width="3.05" stroke-miterlimit="10" stroke-linecap="round" stroke-linejoin="round"/>
<path d="M10.887 10.2482V18.7875H79.667V10.2482H10.887Z" stroke="#FF8B17" stroke-width="3.05" stroke-miterlimit="10" stroke-linecap="round" stroke-linejoin="round"/>
<path d="M40.4512 1.59025V10.1295H79.6668V1.59025H40.4512Z" stroke="#FF8B17" stroke-width="3.05" stroke-miterlimit="10" stroke-linecap="round" stroke-linejoin="round"/>
<path d="M1.2356 1.59025V10.1295H40.4512V1.59025H1.2356Z" stroke="#FF8B17" stroke-width="3.05" stroke-miterlimit="10" stroke-linecap="round" stroke-linejoin="round"/>
<path d="M1.2356 10.2482V18.7875H10.8868V10.2482H1.2356Z" stroke="#FF8B17" stroke-width="3.05" stroke-miterlimit="10" stroke-linecap="round" stroke-linejoin="round"/>
</g>
<defs>
<clipPath id="clip0_67_2488">
<rect width="46" height="80" fill="white" transform="matrix(0 -1 1 0 0 46)"/>
</clipPath>
</defs>
</svg>
