<svg width="78" height="50" viewBox="0 0 78 50" fill="none" xmlns="http://www.w3.org/2000/svg">
<path d="M74.5145 1.19629H36.6723C34.7465 1.19629 33.1865 2.75879 33.1865 4.6875V42.3096H51.2344L51.346 42.3099V42.3096H51.3826C51.3826 41.7236 51.4311 41.1499 51.5287 40.6494C52.3207 36.0718 56.2817 32.7393 60.9253 32.7393C65.5687 32.7393 69.5297 36.0718 70.3218 40.6128C70.4195 41.1499 70.4682 41.7236 70.4682 42.3096H75.1725C76.7325 42.3096 78 41.04 78 39.4653V4.6875C78 2.75879 76.44 1.19629 74.5145 1.19629ZM70.6875 10.3516V15.2344H41.4375V10.3516H70.6875ZM41.4375 20.1172H70.6875V25H41.4375V20.1172Z" fill="#FF8B17"/>
<path d="M5.9961 9.21631L0 26.4404V42.3096H6.09253L6.13031 42.3099V42.3096H6.16687C6.16687 41.7236 6.21562 41.1499 6.31297 40.6494C7.1175 36.0718 11.0662 32.7393 15.7098 32.7393C20.353 32.7393 24.3139 36.0718 25.1064 40.6128C25.2037 41.1255 25.2525 41.6748 25.2525 42.3096H30.2861V6.99463H9.29891C7.84875 6.99463 6.54484 7.87353 5.9961 9.21631ZM25.7645 23.3521C25.7645 24.2065 25.082 24.8779 24.2286 24.8779H7.72703C6.64219 24.8779 5.8989 23.7793 6.31312 22.7783L9.56734 12.4878C9.7989 11.9141 10.3594 11.5356 10.9809 11.5356H24.2286C25.082 11.5356 25.7645 12.2192 25.7645 13.0615V23.3521Z" fill="#FF8B17"/>
<path d="M15.7098 35.791C12.5166 35.791 9.84765 38.1226 9.32328 41.1743C9.25046 41.5283 9.21375 41.9189 9.21375 42.3096C9.21375 45.8862 12.1264 48.8037 15.7098 48.8037C19.3051 48.8037 22.2055 45.8862 22.2055 42.3096C22.2055 41.9189 22.1811 41.5283 22.1083 41.1743C21.5841 38.1226 18.915 35.791 15.7098 35.791Z" fill="#FF8B17"/>
<path d="M60.9254 35.791C57.7199 35.791 55.0632 38.1226 54.5269 41.1743C54.466 41.5283 54.4296 41.9189 54.4296 42.3096C54.4296 45.8862 57.3422 48.8037 60.9254 48.8037C64.5207 48.8037 67.4213 45.8862 67.4213 42.3096C67.4213 41.9189 67.3969 41.5283 67.3238 41.1743C66.7875 38.1226 64.1308 35.791 60.9254 35.791Z" fill="#FF8B17"/>
</svg>
