<svg width="26" height="25" viewBox="0 0 26 25" fill="none" xmlns="http://www.w3.org/2000/svg">
<g clip-path="url(#clip0_67_808)">
<mask id="mask0_67_808" style="mask-type:luminance" maskUnits="userSpaceOnUse" x="0" y="0" width="26" height="25">
<path d="M26 0H0V25H26V0Z" fill="white"/>
</mask>
<g mask="url(#mask0_67_808)">
<path d="M18.0426 16.0731L17.3864 16.7355C17.3864 16.7355 15.8268 18.3105 11.5698 14.0118C7.31287 9.71311 8.87244 8.13826 8.87244 8.13826L9.2856 7.72102C10.3035 6.6932 10.3995 5.04302 9.51134 3.83833L7.69484 1.37403C6.59568 -0.117017 4.47178 -0.313983 3.21195 0.958167L0.95078 3.24148C0.326106 3.87227 -0.0925045 4.68997 -0.0417377 5.59707C0.0881325 7.91772 1.12201 12.9108 6.89111 18.7364C13.009 24.9141 18.7493 25.1596 21.0968 24.9374C21.8393 24.8671 22.485 24.4831 23.0054 23.9576L25.0518 21.8913C26.4333 20.4963 26.0437 18.1048 24.2763 17.1291L21.524 15.6096C20.3634 14.969 18.9496 15.1571 18.0426 16.0731Z" fill="#474747"/>
</g>
</g>
<defs>
<clipPath id="clip0_67_808">
<rect width="26" height="25" fill="white"/>
</clipPath>
</defs>
</svg>
