<svg width="21" height="20" viewBox="0 0 21 20" fill="none" xmlns="http://www.w3.org/2000/svg">
<g clip-path="url(#clip0_67_2696)">
<path d="M14.5727 12.8584L14.0427 13.3883C14.0427 13.3883 12.783 14.6483 9.3447 11.2093C5.90639 7.77038 7.16604 6.5105 7.16604 6.5105L7.49975 6.17671C8.32192 5.35445 8.39942 4.03431 7.68208 3.07056L6.2149 1.09912C5.32712 -0.0937203 3.61166 -0.251293 2.59411 0.766427L0.767778 2.59308C0.263234 3.09771 -0.0748748 3.75187 -0.0338708 4.47755C0.0710244 6.33406 0.906079 10.3285 5.56574 14.989C10.5071 19.9312 15.1435 20.1276 17.0396 19.9498C17.6393 19.8936 18.1608 19.5864 18.5811 19.166L20.234 17.5129C21.3498 16.3969 21.0351 14.4837 19.6076 13.7032L17.3846 12.4876C16.4472 11.9751 15.3053 12.1256 14.5727 12.8584Z" fill="#111111"/>
</g>
<defs>
<clipPath id="clip0_67_2696">
<rect width="21" height="20" fill="white"/>
</clipPath>
</defs>
</svg>
