<svg width="50" height="50" viewBox="0 0 50 50" fill="none" xmlns="http://www.w3.org/2000/svg">
<g clip-path="url(#clip0_67_2504)">
<path d="M44.9178 19.8633C49.0727 16.0929 49.767 11.8082 48.8378 8.19641C48.8103 7.90949 48.7417 7.66848 48.4914 7.48684L47.6552 6.80168C47.5102 6.6674 47.3149 6.60021 47.1196 6.62014C46.9227 6.6385 46.7442 6.74064 46.6283 6.89934L41.8187 13.1524C41.6845 13.337 41.4678 13.4423 41.2404 13.4347L39.4948 13.5629C39.3453 13.5583 39.2003 13.5049 39.0828 13.4103L35.7106 10.5523C35.5733 10.4408 35.4833 10.2821 35.4603 10.1067L35.2513 8.5258C35.2268 8.35187 35.2711 8.17482 35.3749 8.03293L39.8777 1.91564C40.0822 1.63332 40.0426 1.24426 39.7893 1.00773L38.6967 0.154804C38.483 -0.0450987 38.2404 -0.0160948 37.9093 0.0465029C34.7995 0.661444 29.4894 3.67199 28.1421 7.83459C26.955 11.4983 27.3685 14.0816 27.3685 14.0816C27.3685 16.1461 26.6894 18.1359 25.8548 18.972L2.39306 41.4957C2.34726 41.5385 2.30302 41.5796 2.25878 41.6239C0.320888 43.5618 0.323915 46.7082 2.19618 48.5789C4.06845 50.4512 7.26054 50.5016 9.19843 48.5621C9.28847 48.4721 9.37548 48.379 9.45634 48.2829L32.0806 23.8261C34.8638 21.3495 40.3737 23.9893 44.9178 19.8633Z" fill="#FF8B17"/>
</g>
<defs>
<clipPath id="clip0_67_2504">
<rect width="50" height="50" fill="white"/>
</clipPath>
</defs>
</svg>
