<svg width="54" height="51" viewBox="0 0 54 51" fill="none" xmlns="http://www.w3.org/2000/svg">
<g clip-path="url(#clip0_67_2512)">
<path d="M30.3566 28.5292L26.5378 33.4145L24.0958 30.9579C23.8245 30.6788 23.8345 30.26 24.126 29.9901C24.4274 29.7389 24.8797 29.7481 25.1712 30.018L26.4073 31.2557L29.1608 27.7383C29.4019 27.4405 29.8542 27.3569 30.1959 27.5801C30.5174 27.794 30.5977 28.2313 30.3566 28.5292ZM36.1654 31.9721C36.6679 32.4188 36.4367 33.2004 35.7735 33.3493L33.4621 33.8983L34.1153 36.02C34.2963 36.634 33.6732 37.2018 33.0199 37.0342L30.7688 36.4387L33.9848 42.3663L31.3014 41.659L30.5577 43.9575L27 37.3877L23.4423 43.9573L22.6986 41.6588L20.0152 42.3661L23.2312 36.4385L20.9801 37.034C20.3169 37.2016 19.7037 36.6247 19.8847 36.0198L20.5379 33.8981L18.2265 33.3491C17.5633 33.2002 17.3321 32.4186 17.8346 31.9719L19.5229 30.4366L17.8244 28.9012C17.322 28.4545 17.5532 27.6729 18.2164 27.5241L20.5278 26.975L19.8745 24.8534C19.6935 24.2393 20.3167 23.6715 20.9699 23.8391L23.2613 24.444L23.8543 22.3038C24.015 21.6897 24.8794 21.4848 25.3416 21.9409L26.9998 23.5227L28.658 21.9409C29.1303 21.4756 29.9846 21.6989 30.1453 22.3038L30.7382 24.444L33.0296 23.8391C33.6928 23.6715 34.306 24.2485 34.125 24.8534L33.4718 26.975L35.7832 27.5241C36.4464 27.6729 36.6776 28.4545 36.1751 28.9012L34.4767 30.4366L36.1654 31.9721ZM32.7586 30.4366C32.7586 27.5891 30.2562 25.2907 27.201 25.2907C24.1258 25.2907 21.6435 27.5985 21.6435 30.4458C21.6435 33.293 24.1258 35.5917 27.201 35.5917C30.2763 35.5917 32.7586 33.284 32.7586 30.4366ZM0.421875 13.9084C0.421875 16.5799 2.45215 18.8502 5.0625 19.685V45.9397H0.421875V49.4553H53.5781V45.9397H48.9375V19.6807C51.6565 18.9102 53.5146 16.6737 53.5781 13.9084V12.3459H0.421875V13.9084ZM13.7721 13.7807C13.7721 15.0458 15.197 19.9272 20.4645 19.9272C25.0395 19.9272 27.0462 16.0961 27.0462 13.7807C27.0462 15.9393 28.6092 19.9227 33.6831 19.9227C38.2674 19.9227 40.2988 15.8213 40.2988 13.7807C40.2988 16.5981 42.3503 18.9401 45.1406 19.6702V45.9397H8.85938V19.6885C11.6864 18.9799 13.7721 16.6223 13.7721 13.7807ZM47.0036 4.72876H47.0391V0.82251H7.17188V4.72876L0.421875 10.9788H53.5781L47.0036 4.72876Z" fill="#FF8B17"/>
</g>
<defs>
<clipPath id="clip0_67_2512">
<rect width="54" height="50" fill="white" transform="translate(0 0.138916)"/>
</clipPath>
</defs>
</svg>
